<?xml version="1.0" standalone="no"?>
<!DOCTYPE svg PUBLIC "-//W3C//DTD SVG 20010904//EN"
 "http://www.w3.org/TR/2001/REC-SVG-20010904/DTD/svg10.dtd">
<svg version="1.0" xmlns="http://www.w3.org/2000/svg"
 width="753.000000pt" height="725.000000pt" viewBox="0 0 753.000000 725.000000"
 preserveAspectRatio="xMidYMid meet">

<g transform="translate(0.000000,725.000000) scale(0.100000,-0.100000)"
fill="#000000" stroke="none">
<path d="M3510 7020 c-501 -30 -1098 -216 -1515 -473 -133 -82 -285 -185 -335
-226 -30 -26 -87 -72 -126 -104 -97 -78 -322 -302 -414 -412 -210 -251 -339
-447 -482 -730 -128 -254 -195 -436 -263 -718 -60 -248 -76 -390 -82 -697 -5
-242 -3 -296 16 -450 26 -206 32 -242 76 -420 106 -434 269 -780 572 -1215
179 -258 578 -636 873 -826 213 -138 441 -257 610 -318 63 -23 124 -46 135
-51 11 -5 40 -16 65 -24 25 -9 63 -22 85 -30 56 -20 339 -84 448 -102 560 -91
1222 -39 1732 136 426 146 873 407 1180 690 279 258 523 555 682 830 249 432
380 815 450 1315 25 181 25 594 -1 785 -21 157 -58 355 -85 455 -24 89 -100
317 -111 330 -4 6 -11 21 -15 35 -25 86 -164 375 -238 495 -228 371 -446 632
-747 891 -14 12 -43 37 -65 56 -111 96 -264 203 -413 289 -52 30 -108 63 -125
73 -61 36 -225 115 -334 160 -110 45 -430 148 -513 165 -462 93 -694 113
-1060 91z m2357 -1556 c18 -9 45 -35 60 -58 l28 -41 0 -1230 0 -1230 -24 -34
c-45 -63 -93 -76 -286 -78 -93 -1 -175 -2 -182 -2 -7 -1 10 -31 38 -68 28 -38
71 -102 97 -143 25 -41 49 -77 52 -80 3 -3 48 -70 99 -150 51 -80 150 -233
221 -340 71 -107 169 -257 217 -333 49 -76 107 -164 130 -194 24 -31 41 -58
39 -61 -10 -10 -52 14 -123 70 -82 66 -1258 1235 -1288 1282 l-19 29 -1355 -8
c-1003 -5 -1367 -4 -1398 4 -52 14 -101 55 -119 98 -10 22 -14 78 -14 183 l0
150 -479 0 -479 0 -31 26 c-32 27 -48 77 -36 113 15 50 29 51 545 51 l480 0 0
195 0 194 -484 3 c-543 3 -514 -1 -534 77 -11 44 5 94 33 105 9 3 235 6 501 6
l484 0 0 540 c0 475 2 541 15 546 12 5 13 10 4 20 -7 9 -11 55 -10 130 2 122
15 167 58 206 49 45 -18 43 1904 41 1671 -3 1827 -4 1856 -19z"/>
</g>
</svg>
